<?xml version="1.0" encoding="utf-8"?>
<!-- Generator: Adobe Illustrator 28.1.0, SVG Export Plug-In . SVG Version: 6.00 Build 0)  -->
<svg version="1.1" xmlns="http://www.w3.org/2000/svg" xmlns:xlink="http://www.w3.org/1999/xlink" x="0px" y="0px"
	 viewBox="0 0 888 300" style="enable-background:new 0 0 888 300;" xml:space="preserve">
<g id="Layer_1">
	<g>
		<g>
			<g>
				<path d="M232.85,149.45c8.51-7.49,15.36-13.43,20.57-17.81s10.12-8.28,14.76-11.71s8.76-6.09,12.38-8
					c3.62-1.9,7.1-3.22,10.44-3.94l0.63,0.51l-1.84,1.71c-5.59,5.25-10.57,10.14-14.95,14.66c-4.38,4.53-9.06,9.6-14.03,15.2
					c-4.97,5.61-9.61,11.08-13.9,16.41c-4.3,5.33-8.81,11.17-13.55,17.52c1.99,0,4.32-0.62,6.98-1.87c2.67-1.25,5.36-2.9,8.09-4.95
					c2.73-2.05,5.21-4.2,7.46-6.44v1.08c-2.54,2.71-6.04,5.58-10.51,8.6c-4.47,3.03-8.64,4.54-12.54,4.54l-2.6,3.75h-5.84l3.36-4.44
					c-3.09-0.59-5.66-1.42-7.71-2.48c-2.05-1.06-4.33-2.6-6.82-4.63c-3.68,2.37-7.09,4.43-10.22,6.19
					c-3.13,1.76-6.45,3.26-9.97,4.51c-3.51,1.25-7,1.87-10.47,1.87c-3.51,0-6.25-0.66-8.22-1.97s-2.95-3.11-2.95-5.4
					c0-1.56,0.49-2.94,1.46-4.13c0.97-1.18,2.16-1.78,3.55-1.78c0.89,0,1.56,0.23,2.03,0.7c0.47,0.47,0.7,0.93,0.7,1.4
					c0,1.31-0.8,1.97-2.41,1.97c-1.31,0-2.09-0.7-2.35-2.09c-1.31,1.1-1.97,2.5-1.97,4.19c0,1.95,0.87,3.47,2.6,4.57
					c1.73,1.1,4.21,1.65,7.43,1.65c3.3,0,6.7-0.61,10.19-1.84s6.8-2.73,9.93-4.51c3.13-1.78,6.39-3.79,9.78-6.03
					c-3.3-3.64-5.67-6.94-7.11-9.9c-1.44-2.96-2.16-6.28-2.16-9.97c0-3.89,1.02-7.31,3.05-10.25c2.03-2.94,5.06-4.41,9.08-4.41
					c4.44,0,8.18,1.62,11.2,4.86C229.43,140.02,231.58,144.24,232.85,149.45z M231.96,150.21c-0.8-4.4-2.69-8.4-5.65-12
					c-2.96-3.6-6.62-5.4-10.98-5.4c-3.13,0-5.53,0.88-7.2,2.63c-1.67,1.76-2.77,3.61-3.3,5.55c-0.53,1.95-0.79,3.47-0.79,4.57
					c0,4.02,0.7,7.53,2.09,10.54c1.4,3.01,3.77,6.24,7.11,9.71C217.72,162.35,223.96,157.15,231.96,150.21z M232.22,151.16
					c-1.74,1.61-4.47,3.98-8.19,7.11c-3.72,3.13-7.07,5.86-10.03,8.19c2.58,2.07,4.93,3.65,7.05,4.73c2.12,1.08,4.59,1.85,7.43,2.32
					c1.86-3.98,3.07-7.72,3.62-11.24C232.64,158.76,232.68,155.05,232.22,151.16z M266.43,131.55l1.65-1.84
					c1.78-1.9,5.24-5.32,10.38-10.25c5.14-4.93,8.58-8.18,10.32-9.74c-3.3,0.63-7.58,2.65-12.82,6.03
					c-5.25,3.39-10.54,7.23-15.87,11.52c-5.33,4.3-10.29,8.47-14.89,12.54c-4.59,4.06-8.58,7.6-11.97,10.6
					c0.51,3.85,0.56,7.3,0.16,10.35c-0.4,3.05-1.32,6.35-2.76,9.9c1.65-2.07,3.7-4.46,6.16-7.17c2.45-2.71,4.48-4.92,6.09-6.63
					c1.61-1.71,4.2-4.49,7.78-8.32C254.23,144.7,259.49,139.04,266.43,131.55z"/>
				<path d="M295.44,123.74l3.17-3.43h4.89l-39.99,44.75c-4.78,5.25-7.17,8.32-7.17,9.2c0,0.8,0.42,1.21,1.27,1.21
					c1.48,0,3.17-0.62,5.08-1.87s4.48-3.33,7.71-6.25c3.24-2.92,5.62-5.04,7.14-6.35v1.08c-5.76,5.29-9.97,8.99-12.63,11.11
					s-5.1,3.17-7.3,3.17c-0.76,0-1.41-0.29-1.94-0.86c-0.53-0.57-0.79-1.24-0.79-2c0-2.16,1.06-4.68,3.17-7.55s4.97-6.24,8.57-10.09
					c0.25-0.34,1.02-1.24,2.29-2.7c1.27-1.46,2.5-2.91,3.68-4.35c-2.92,2.2-8.55,7-16.88,14.41v-1.02l18.03-15.62
					C275.93,144.73,283.17,137.11,295.44,123.74z"/>
				<path d="M315.69,123.74l3.17-3.43h4.89l-39.99,44.75c-4.78,5.25-7.17,8.32-7.17,9.2c0,0.8,0.42,1.21,1.27,1.21
					c1.48,0,3.17-0.62,5.08-1.87s4.47-3.33,7.71-6.25c3.24-2.92,5.62-5.04,7.14-6.35v1.08c-5.76,5.29-9.97,8.99-12.63,11.11
					s-5.1,3.17-7.3,3.17c-0.76,0-1.41-0.29-1.94-0.86c-0.53-0.57-0.79-1.24-0.79-2c0-2.16,1.06-4.68,3.17-7.55s4.97-6.24,8.57-10.09
					c0.25-0.34,1.02-1.24,2.29-2.7c1.27-1.46,2.5-2.91,3.68-4.35c-2.92,2.2-8.55,7-16.88,14.41v-1.02l18.03-15.62
					C296.18,144.73,303.42,137.11,315.69,123.74z"/>
				<path d="M382.91,149.45c8.51-7.49,15.36-13.43,20.57-17.81s10.12-8.28,14.76-11.71c4.63-3.43,8.76-6.09,12.38-8
					c3.62-1.9,7.1-3.22,10.44-3.94l0.63,0.51l-1.84,1.71c-5.59,5.25-10.57,10.14-14.95,14.66c-4.38,4.53-9.06,9.6-14.03,15.2
					c-4.97,5.61-9.61,11.08-13.9,16.41c-4.3,5.33-8.81,11.17-13.55,17.52c1.99,0,4.32-0.62,6.98-1.87c2.67-1.25,5.36-2.9,8.09-4.95
					c2.73-2.05,5.21-4.2,7.46-6.44v1.08c-2.54,2.71-6.04,5.58-10.5,8.6c-4.47,3.03-8.64,4.54-12.54,4.54l-2.6,3.75h-5.84l3.36-4.44
					c-3.09-0.59-5.66-1.42-7.71-2.48s-4.33-2.6-6.82-4.63c-3.68,2.37-7.09,4.43-10.22,6.19c-3.13,1.76-6.45,3.26-9.97,4.51
					c-3.51,1.25-7,1.87-10.47,1.87c-3.51,0-6.25-0.66-8.22-1.97c-1.97-1.31-2.95-3.11-2.95-5.4c0-1.56,0.49-2.94,1.46-4.13
					c0.97-1.18,2.16-1.78,3.55-1.78c0.89,0,1.57,0.23,2.03,0.7c0.46,0.47,0.7,0.93,0.7,1.4c0,1.31-0.8,1.97-2.41,1.97
					c-1.31,0-2.09-0.7-2.35-2.09c-1.31,1.1-1.97,2.5-1.97,4.19c0,1.95,0.87,3.47,2.6,4.57c1.73,1.1,4.21,1.65,7.43,1.65
					c3.3,0,6.7-0.61,10.19-1.84c3.49-1.23,6.8-2.73,9.93-4.51c3.13-1.78,6.39-3.79,9.78-6.03c-3.3-3.64-5.67-6.94-7.11-9.9
					c-1.44-2.96-2.16-6.28-2.16-9.97c0-3.89,1.02-7.31,3.05-10.25c2.03-2.94,5.06-4.41,9.08-4.41c4.44,0,8.18,1.62,11.2,4.86
					S381.64,144.24,382.91,149.45z M382.02,150.21c-0.8-4.4-2.69-8.4-5.65-12c-2.96-3.6-6.62-5.4-10.98-5.4
					c-3.13,0-5.53,0.88-7.21,2.63c-1.67,1.76-2.77,3.61-3.3,5.55c-0.53,1.95-0.79,3.47-0.79,4.57c0,4.02,0.7,7.53,2.09,10.54
					c1.4,3.01,3.77,6.24,7.11,9.71C367.78,162.35,374.02,157.15,382.02,150.21z M382.27,151.16c-1.74,1.61-4.46,3.98-8.19,7.11
					c-3.72,3.13-7.07,5.86-10.03,8.19c2.58,2.07,4.93,3.65,7.05,4.73c2.12,1.08,4.59,1.85,7.43,2.32c1.86-3.98,3.07-7.72,3.62-11.24
					C382.7,158.76,382.74,155.05,382.27,151.16z M416.49,131.55l1.65-1.84c1.78-1.9,5.24-5.32,10.38-10.25
					c5.14-4.93,8.58-8.18,10.32-9.74c-3.3,0.63-7.58,2.65-12.82,6.03c-5.25,3.39-10.54,7.23-15.87,11.52
					c-5.33,4.3-10.29,8.47-14.89,12.54s-8.58,7.6-11.96,10.6c0.51,3.85,0.56,7.3,0.16,10.35s-1.32,6.35-2.76,9.9
					c1.65-2.07,3.7-4.46,6.16-7.17c2.45-2.71,4.49-4.92,6.09-6.63c1.61-1.71,4.2-4.49,7.78-8.32
					C404.29,144.7,409.55,139.04,416.49,131.55z"/>
				<path d="M434.07,136.88l14.85-16.57h5.46l-40.94,45.51c-2.92,3.26-4.69,5.68-5.3,7.27c-0.61,1.59-0.33,2.38,0.86,2.38
					c3.22,0,6.58-1.12,10.09-3.36c3.51-2.24,6.45-4.83,8.82-7.78c2.37-2.94,3.55-5.26,3.55-6.95c0-2.33,0.66-3.49,1.97-3.49
					c0.51,0,0.76,0.25,0.76,0.76c0,2.79-1.82,6.31-5.46,10.54c2.29,0.08,4-0.13,5.14-0.63s2.64-1.78,4.51-3.81v1.08
					c-1.78,1.99-3.32,3.23-4.63,3.71c-1.31,0.49-3.24,0.62-5.78,0.41c-3.17,3.55-6.46,6.18-9.87,7.87s-6.49,2.54-9.24,2.54
					c-1.9,0-2.86-0.91-2.86-2.73c0-1.56,0.39-3.16,1.17-4.79c0.78-1.63,2.13-3.67,4.03-6.12c0.46-0.68,1.25-1.64,2.35-2.89
					c1.1-1.25,2.59-2.93,4.48-5.05c1.88-2.12,3.62-4.07,5.21-5.87c1.59-1.8,2.42-2.74,2.51-2.82l-20.12,17.27v-1.02l2.03-1.84
					c3.89-3.39,7.07-6.16,9.52-8.32c2.45-2.16,5.16-4.55,8.12-7.17c2.96-2.62,4.96-4.42,6-5.4
					C432.35,138.63,433.27,137.73,434.07,136.88z"/>
				<path d="M465.43,160.75v1.08c-2.37,2.84-5.01,4.25-7.93,4.25c-0.3-0.04-0.59-0.08-0.89-0.13c-0.3-0.04-0.63-0.08-1.02-0.13
					c-6.77,7.02-12.63,10.54-17.58,10.54c-0.93,0-1.79-0.24-2.57-0.73s-1.38-1.13-1.78-1.94s-0.6-1.74-0.6-2.79
					c0-2.83,1.25-5.61,3.75-8.32c2.5-2.71,5.51-4.92,9.05-6.63c3.53-1.71,6.63-2.57,9.3-2.57c2.88,0,4.32,1.33,4.32,4
					c0,2.16-1.04,4.68-3.11,7.55c0.42,0.17,0.89,0.25,1.4,0.25C460.41,165.19,462.97,163.71,465.43,160.75z M455.33,154.27
					c-2.37,0-5.09,1.34-8.16,4.03c-3.07,2.69-5.82,5.64-8.25,8.86c-2.43,3.22-3.65,5.21-3.65,5.97c0,0.68,0.31,1.24,0.92,1.68
					c0.61,0.45,1.39,0.67,2.32,0.67c2.24,0,4.94-1.11,8.09-3.33c3.15-2.22,5.93-4.84,8.35-7.87c2.41-3.02,3.62-5.4,3.62-7.14
					c0-0.85-0.31-1.53-0.92-2.06C457.04,154.54,456.27,154.27,455.33,154.27z"/>
				<path d="M463.9,163.35v-1.02c2.79-2.71,6.69-5.52,11.68-8.44h5.33l-14.16,16.12c-2.37,2.71-3.55,4.27-3.55,4.7
					s0.36,0.63,1.08,0.63c2.33,0,6.14-2.06,11.43-6.19c5.29-4.13,11.15-9.21,17.58-15.27h5.01l-14.79,16.88
					c-0.17,0.21-0.52,0.61-1.05,1.21c-0.53,0.59-0.93,1.13-1.21,1.62c-0.28,0.49-0.39,0.9-0.35,1.24c0,0.42,0.34,0.63,1.02,0.63
					c1.57,0,4.51-1.41,8.82-4.22c4.32-2.81,8.53-6.32,12.63-10.5v1.08c-4.19,4.19-8.37,7.66-12.54,10.41
					c-4.17,2.75-7.23,4.13-9.17,4.13c-1.48,0-2.22-0.74-2.22-2.22c0-1.4,0.64-3.15,1.94-5.27c1.29-2.12,3.29-4.82,6-8.12l1.21-1.4
					l-2.35,2.09c-5.12,4.57-9.53,8.2-13.23,10.89c-3.7,2.69-6.61,4.03-8.73,4.03c-1.57,0-2.35-0.91-2.35-2.73
					c0-1.18,0.35-2.49,1.05-3.9c0.7-1.42,1.63-2.89,2.79-4.41c1.16-1.52,2.4-3.01,3.71-4.48c1.31-1.46,2.64-2.95,4-4.47l-3.24,1.9
					C467.33,160.43,465.22,162.12,463.9,163.35z"/>
				<path d="M523.57,144.5l10.54-11.93h5.46l-10.54,11.93h8.06l-0.7,1.08h-8.19l-15.42,17.52c-1.69,1.86-3.57,4.11-5.62,6.73
					c-2.05,2.62-3.08,4.06-3.08,4.32c0,0.89,0.46,1.33,1.4,1.33c3.47,0,10.92-4.91,22.34-14.73v1.08l-3.36,2.98
					c-8.76,7.7-15.13,11.55-19.11,11.55c-0.97,0-1.74-0.27-2.29-0.83c-0.55-0.55-0.83-1.18-0.83-1.9c0-1.69,1.2-4.51,3.59-8.44
					s7.08-9.39,14.06-16.38c-4.32,2.88-10.33,7.72-18.03,14.54v-1.02c2.58-2.45,5.78-5.24,9.58-8.35c3.81-3.11,7.53-5.91,11.17-8.41
					h-4.63l0.89-1.08H523.57z"/>
				<path d="M594.41,155.54c2.5-2.79,6.46-6.89,11.9-12.28s9.76-9.62,12.98-12.66c3.6-3.39,6.65-6.22,9.17-8.51
					c2.52-2.29,4.7-4.19,6.54-5.71c1.84-1.52,3.82-3.04,5.94-4.54c2.12-1.5,4.59-3.12,7.43-4.86l0.83,0.51
					c-7.15,7.96-11.53,12.97-13.14,15.04l-1.21,1.46c-0.21,0.3-0.76,0.99-1.65,2.09c-6.01,6.94-12.57,14.77-19.68,23.49
					c-5.63,7.07-9.6,12.12-11.9,15.17s-4.05,5.5-5.24,7.36c-1.19,1.86-2.01,3.45-2.48,4.76c-0.47,1.31-0.38,1.97,0.25,1.97
					c0.8,0,2.19-0.83,4.16-2.51c1.97-1.67,4.09-3.71,6.38-6.12s5.97-6.33,11.04-11.74c1.18-1.31,2.39-2.63,3.62-3.97
					c1.23-1.33,2.66-2.88,4.29-4.63c1.63-1.76,3.16-3.4,4.6-4.92c5.8-6.18,10.17-10.7,13.11-13.55s6.55-6.19,10.82-10l3.62-3.24
					c5.46-4.87,10.41-8.59,14.85-11.17l0.76,0.51l-2.6,3.11c-8.89,10.66-16.71,20.2-23.45,28.6c-6.75,8.4-11.97,15.04-15.65,19.93
					c-3.68,4.89-6.6,8.97-8.76,12.25c-2.16,3.28-3.24,5.3-3.24,6.06c0,0.93,0.46,1.4,1.4,1.4c1.44,0,3.45-0.92,6.03-2.76
					c2.58-1.84,5.66-4.38,9.24-7.62c3.58-3.24,6.42-5.81,8.54-7.71v1.08c-5.46,5.04-9.43,8.64-11.9,10.82
					c-2.48,2.18-4.74,3.9-6.79,5.17s-3.92,1.9-5.62,1.9c-1.57,0-2.35-0.87-2.35-2.6c0-3.39,1.24-7.36,3.71-11.93
					c2.47-4.57,5.73-9.35,9.78-14.35c4.04-4.99,9.09-10.66,15.14-17.01l22.98-23.87c-4.4,2.41-12.23,8.95-23.49,19.61
					c-0.47,0.42-1.12,1.06-1.97,1.9c-0.85,0.85-2.2,2.2-4.06,4.06c-1.86,1.86-4.33,4.42-7.4,7.68c-3.07,3.26-6,6.37-8.79,9.33
					l-1.84,1.97c-0.51,0.68-1.12,1.38-1.84,2.09c-5.33,5.88-9.32,10.24-11.96,13.08c-2.65,2.84-5.12,5.22-7.43,7.14
					c-2.31,1.93-4.12,2.89-5.43,2.89c-0.3,0-0.58-0.25-0.86-0.76c-0.28-0.51-0.41-0.97-0.41-1.4c0-2.79,0.86-5.91,2.57-9.36
					c1.71-3.45,3.81-6.83,6.28-10.16c2.48-3.32,5.03-6.44,7.65-9.36c6.9-7.83,12.18-13.72,15.84-17.68
					c3.66-3.96,8.03-8.39,13.11-13.3l9.01-8.57c-3.85,2.5-6.79,4.52-8.82,6.06c-2.03,1.55-4.95,3.99-8.76,7.33
					c-1.65,1.44-4.13,3.71-7.43,6.82s-6.28,5.98-8.95,8.6c-2.67,2.62-5.46,5.44-8.38,8.44c-2.92,3.01-6.01,6.28-9.27,9.84
					c-4.23,4.61-7.23,7.87-8.98,9.78s-4.05,4.01-6.89,6.32c-2.84,2.31-5.83,4.12-8.98,5.43s-6.53,1.97-10.12,1.97
					c-2.5,0-4.53-0.53-6.09-1.59c-1.57-1.06-2.35-2.52-2.35-4.38c0-1.27,0.29-2.35,0.86-3.24c0.57-0.89,1.49-1.33,2.76-1.33
					c0.68,0,1.3,0.24,1.87,0.73c0.57,0.49,0.86,1.07,0.86,1.75c0,0.59-0.2,1.11-0.6,1.56c-0.4,0.44-0.9,0.67-1.49,0.67
					c-1.52,0-2.07-0.87-1.65-2.6c0-0.25-0.04-0.42-0.13-0.51c-0.47,0-0.85,0.33-1.14,0.98c-0.3,0.66-0.44,1.37-0.44,2.13
					c0,1.4,0.69,2.57,2.06,3.52c1.38,0.95,3.08,1.43,5.11,1.43c3.72,0,7.2-0.67,10.44-2c3.24-1.33,6.08-3.01,8.54-5.05
					c2.45-2.03,4.49-3.91,6.09-5.65C586.56,164.41,589.72,160.87,594.41,155.54z"/>
				<path d="M668.68,160.75v1.08c-4.74,4.74-9.08,8.35-13.01,10.82c-3.94,2.48-7.91,3.71-11.93,3.71c-3.55,0-5.33-2.03-5.33-6.09
					c0-3.39,1.28-6.36,3.84-8.92c2.56-2.56,5.56-4.53,9.01-5.9c3.45-1.38,6.25-2.06,8.41-2.06c1.23,0,2.19,0.29,2.89,0.86
					c0.7,0.57,1.05,1.32,1.05,2.25c0,1.44-0.78,2.76-2.35,3.97c-1.57,1.21-3.75,2.2-6.54,2.98s-6.07,1.24-9.84,1.36
					c-3.22,3.64-4.82,6.41-4.82,8.32c0,0.68,0.35,1.24,1.05,1.68c0.7,0.45,1.58,0.67,2.63,0.67
					C650.55,175.47,658.86,170.56,668.68,160.75z M646.15,163.6c3.51,0,6.47-0.44,8.89-1.33s4.24-1.95,5.49-3.17
					c1.25-1.23,1.87-2.22,1.87-2.98c0-1.23-0.72-1.84-2.16-1.84c-1.9,0-4.13,0.84-6.67,2.51
					C651.03,158.45,648.56,160.72,646.15,163.6z"/>
			</g>
		</g>
	</g>
</g>
<g id="Layer_2">
</g>
</svg>
